<svg id="Layer_11" data-name="Layer 11" xmlns="http://www.w3.org/2000/svg" viewBox="0 0 494.8 484.93"><defs><style>.cls-1{fill:none;stroke:#3db54a;stroke-miterlimit:10;stroke-width:50px;}</style></defs><title>light</title><path class="cls-1" d="M522.13,83l-.69,237.44c-.54,31-.72,54.35,0,54.37.32,0,.48-4.5.69-4.47,0,0-3,20.27-4.31,22.6-2,3.7-3.5,3.41-16.32,12.69-8,5.78-7.42,5.89-14.5,10.87-8.9,6.27-13.45,9.43-18.12,10.88-9.46,2.93-17.85.58-19.94.1-13.15-3-95.7-3.65-295.44-.1a68.44,68.44,0,0,1-19.93-1.82,72.29,72.29,0,0,1-18.13-7.25,93.66,93.66,0,0,1-19.94-14.5c-7.71-7.05-11.56-10.58-14.5-16.31-3.7-7.24-3.79-13.54-3.62-29,.22-19.76.55-29.63.6-32.62q2.08-126.72,0-250.13" transform="translate(-52.33 -75.35)"/><line class="cls-1" x1="267.85" y1="131.49" x2="267.85" y2="484.93"/></svg>