<svg id="Layer_15" data-name="Layer 15" xmlns="http://www.w3.org/2000/svg" viewBox="0 0 494.8 502"><defs><style>.cls-1{fill:none;stroke:#af1f29;stroke-miterlimit:10;stroke-width:50px;}</style></defs><title>severe</title><path class="cls-1" d="M522.5,74.37l-.69,237.44c-.55,31-.72,54.35,0,54.37.32,0,.48-4.5.69-4.47,0,0-3,20.27-4.32,22.6-2,3.7-3.49,3.41-16.31,12.69-8,5.78-7.42,5.89-14.5,10.87-8.9,6.27-13.45,9.43-18.12,10.88-9.47,2.93-17.86.58-19.94.1-13.15-3-95.7-3.65-295.44-.1a68.16,68.16,0,0,1-19.94-1.82,72.19,72.19,0,0,1-18.12-7.25,93.66,93.66,0,0,1-19.94-14.5c-7.71-7.05-11.57-10.58-14.5-16.31-3.7-7.24-3.8-13.54-3.62-29,.22-19.76.55-29.63.6-32.62q2.07-126.72,0-250.13" transform="translate(-52.7 -66.71)"/><line class="cls-1" x1="137.57" y1="148.56" x2="137.57" y2="502"/><line class="cls-1" x1="231.82" y1="148.56" x2="231.82" y2="502"/><line class="cls-1" x1="336.95" y1="148.56" x2="336.95" y2="502"/></svg>