<svg id="Layer_12" data-name="Layer 12" xmlns="http://www.w3.org/2000/svg" viewBox="0 0 494.8 378.48"><defs><style>.cls-1{fill:none;stroke:#d16728;stroke-miterlimit:10;stroke-width:50px;}</style></defs><title>Untitled-2</title><path class="cls-1" d="M522.26,148.36l-.7,237.44c-.54,31-.72,54.35,0,54.37.32,0,.48-4.5.7-4.47,0,0-3,20.27-4.32,22.6-2,3.7-3.5,3.41-16.31,12.69-8,5.78-7.42,5.89-14.5,10.87-8.91,6.27-13.46,9.43-18.13,10.88-9.46,2.93-17.85.58-19.94.1-13.15-3-95.69-3.65-295.43-.1a68.48,68.48,0,0,1-19.94-1.82,72.67,72.67,0,0,1-18.13-7.25,93.28,93.28,0,0,1-19.93-14.5c-7.72-7.05-11.57-10.58-14.5-16.31-3.71-7.24-3.8-13.54-3.63-29,.22-19.76.56-29.63.61-32.62q2.07-126.72,0-250.13" transform="translate(-52.45 -140.7)"/><line class="cls-1" x1="311.42" y1="134.64" x2="311.42" y2="328.12"/><line class="cls-1" x1="164.61" y1="134.64" x2="164.61" y2="337.07"/></svg>